<svg width="32.000000" height="32.000000" viewBox="0 0 32 32" fill="none" xmlns="http://www.w3.org/2000/svg" xmlns:xlink="http://www.w3.org/1999/xlink">
	<desc>
			Created with Pixso.
	</desc>
	<defs/>
	<path id="Vector" d="M28.4 10.08C28.58 9.45 28.4 9 27.54 9L24.69 9C23.97 9 23.64 9.39 23.46 9.83C23.46 9.83 22.01 13.48 19.96 15.85C19.3 16.54 19 16.76 18.64 16.76C18.45 16.76 18.18 16.54 18.18 15.92L18.18 10.08C18.18 9.33 17.98 9 17.38 9L12.91 9C12.46 9 12.18 9.34 12.18 9.67C12.18 10.38 13.21 10.55 13.32 12.54L13.32 16.89C13.32 17.84 13.15 18.01 12.79 18.01C11.82 18.01 9.48 14.34 8.08 10.14C7.82 9.32 7.54 9 6.82 9L3.97 9C3.16 9 3 9.39 3 9.83C3 10.61 3.96 14.48 7.49 19.6C9.84 23.1 13.15 25 16.16 25C17.97 25 18.19 24.57 18.19 23.85L18.19 21.21C18.19 20.36 18.36 20.2 18.94 20.2C19.36 20.2 20.08 20.41 21.77 22.1C23.7 24.1 24.01 25 25.1 25L27.94 25C28.76 25 29.16 24.57 28.93 23.74C28.67 22.91 27.75 21.71 26.53 20.29C25.87 19.48 24.87 18.6 24.57 18.17C24.15 17.6 24.27 17.35 24.57 16.85C24.57 16.85 28.04 11.8 28.4 10.08L28.4 10.08Z" fill="#232323" fill-opacity="1.000000" fill-rule="evenodd"/>
</svg>
