<svg width="30.000000" height="22.758301" viewBox="0 0 30 22.7583" fill="none" xmlns="http://www.w3.org/2000/svg" xmlns:xlink="http://www.w3.org/1999/xlink">
	<desc>
			Created with Pixso.
	</desc>
	<defs>
		<filter id="filter_5_1053_dd" x="3.589844" y="0.000000" width="22.757812" height="22.758301" filterUnits="userSpaceOnUse" color-interpolation-filters="sRGB">
			<feFlood flood-opacity="0" result="BackgroundImageFix"/>
			<feColorMatrix in="SourceAlpha" type="matrix" values="0 0 0 0 0 0 0 0 0 0 0 0 0 0 0 0 0 0 127 0" result="hardAlpha"/>
			<feOffset dx="0" dy="1"/>
			<feGaussianBlur stdDeviation="2"/>
			<feComposite in2="hardAlpha" operator="out" k2="-1" k3="1"/>
			<feColorMatrix type="matrix" values="0 0 0 0 1 0 0 0 0 1 0 0 0 0 1 0 0 0 0.4 0"/>
			<feBlend mode="normal" in2="BackgroundImageFix" result="effect_dropShadow_1"/>
			<feBlend mode="normal" in="SourceGraphic" in2="effect_dropShadow_1" result="shape"/>
		</filter>
		<linearGradient x1="14.999666" y1="3.709015" x2="14.999666" y2="16.956964" id="paint_linear_5_1053_0" gradientUnits="userSpaceOnUse">
			<stop stop-color="#26C0F1"/>
			<stop offset="1.000000" stop-color="#6F35CE"/>
		</linearGradient>
	</defs>
	<path id="G" d="M6.59 14.65C5.67 14.65 4.81 14.46 4 14.08C3.2 13.7 2.5 13.17 1.89 12.51C1.3 11.84 0.83 11.08 0.49 10.23C0.16 9.38 0 8.47 0 7.52C0 6.56 0.16 5.67 0.49 4.83C0.83 3.99 1.3 3.24 1.89 2.59C2.5 1.93 3.2 1.42 4 1.06C4.82 0.69 5.71 0.51 6.67 0.51C8 0.51 9.12 0.79 10.03 1.35C10.95 1.9 11.64 2.64 12.1 3.55L10.4 4.77C10.03 4.01 9.51 3.44 8.82 3.06C8.15 2.68 7.41 2.49 6.61 2.49C5.95 2.49 5.35 2.63 4.81 2.9C4.27 3.18 3.81 3.56 3.41 4.04C3.03 4.51 2.74 5.06 2.54 5.67C2.34 6.27 2.25 6.91 2.25 7.58C2.25 8.28 2.36 8.95 2.58 9.56C2.81 10.18 3.12 10.72 3.53 11.19C3.94 11.65 4.42 12.01 4.97 12.27C5.52 12.53 6.12 12.66 6.77 12.66C7.53 12.66 8.26 12.47 8.94 12.09C9.64 11.7 10.29 11.12 10.9 10.35L10.9 12.58C9.67 13.96 8.24 14.65 6.59 14.65ZM10.68 9.13L6.61 9.13L6.61 7.5L10.9 7.5L10.76 8.9L10.94 10.87L11.89 13.39L12.54 14.55L11.31 13.85L10.68 9.13Z" fill="#232323" fill-opacity="1.000000" fill-rule="nonzero"/>
	<path id="D" d="M18.32 14.52L18.75 12.74L19.7 9.14L18.32 6.56L18.32 0.63L23.24 0.63C24.74 0.63 25.99 0.94 26.99 1.57C27.99 2.18 28.74 3.02 29.23 4.07C29.74 5.12 30 6.28 30 7.56C30 8.97 29.72 10.19 29.16 11.24C28.61 12.28 27.83 13.09 26.81 13.66C25.8 14.24 24.6 14.52 23.24 14.52L18.32 14.52ZM27.77 7.56C27.77 6.58 27.59 5.72 27.22 4.97C26.87 4.22 26.36 3.63 25.68 3.21C25.01 2.78 24.2 2.57 23.24 2.57L20.5 2.57L20.5 12.59L23.24 12.59C24.21 12.59 25.03 12.37 25.7 11.92C26.38 11.48 26.89 10.88 27.24 10.12C27.59 9.36 27.77 8.51 27.77 7.56Z" fill="#232323" fill-opacity="1.000000" fill-rule="nonzero"/>
	<g filter="url(#filter_5_1053_dd)">
		<path id="Subtract" d="M14.9688 5C11.998 5 9.58984 7.4082 9.58984 10.3789C9.58984 13.3501 11.998 15.7583 14.9688 15.7583C17.9395 15.7583 20.3477 13.3501 20.3477 10.3789C20.3477 7.4082 17.9395 5 14.9688 5ZM14.9844 5.74805C12.7148 5.74805 10.875 7.58789 10.875 9.85742C10.875 12.1274 12.7148 13.9673 14.9844 13.9673C17.2539 13.9673 19.0938 12.1274 19.0938 9.85742C19.0938 7.58789 17.2539 5.74805 14.9844 5.74805Z" clip-rule="evenodd" fill="url(#paint_linear_5_1053_0)" fill-opacity="1.000000" fill-rule="evenodd"/>
	</g>
</svg>
