<svg width="55" height="28" viewBox="0 0 55 28" fill="none" xmlns="http://www.w3.org/2000/svg">
<g clip-path="url(#clip0_1_264)">
<path d="M47.5589 7.99265V14.8382H45.1481V10.0362H42.8268V14.8382H40.416V7.99219H47.5589V7.99265Z" fill="black"/>
<path fill-rule="evenodd" clip-rule="evenodd" d="M35.4657 15.0824C37.6238 15.0824 39.2264 13.7408 39.2264 11.7068C39.2264 9.73817 38.044 8.45997 36.0679 8.45997C35.156 8.45997 34.4034 8.78547 33.8366 9.3471C33.972 8.18627 34.9401 7.3388 36.006 7.3388C36.252 7.3388 38.1041 7.33483 38.1041 7.33483L39.1514 5.30273C39.1514 5.30273 36.8262 5.3564 35.7453 5.3564C33.2756 5.40003 31.6074 7.6762 31.6074 10.4407C31.6074 13.6614 33.2344 15.0824 35.4657 15.0824ZM35.4788 10.2599C36.2801 10.2599 36.8356 10.7938 36.8356 11.7066C36.8356 12.5281 36.342 13.205 35.4788 13.2069C34.6531 13.2069 34.0976 12.5797 34.0976 11.7206C34.0976 10.8075 34.6531 10.2599 35.4788 10.2599Z" fill="black"/>
<path d="M29.6434 12.546C29.6434 12.546 29.074 12.8788 28.2237 12.9418C27.2462 12.9712 26.3751 12.3451 26.3751 11.2328C26.3751 10.1478 27.1438 9.52599 28.1991 9.52599C28.8462 9.52599 29.7023 9.98076 29.7023 9.98076C29.7023 9.98076 30.3287 8.81526 30.6532 8.23239C30.059 7.77576 29.2676 7.52539 28.3471 7.52539C26.024 7.52539 24.2246 9.06119 24.2246 11.2191C24.2246 13.4045 25.9158 14.9046 28.3471 14.8593C29.0266 14.8336 29.9642 14.5917 30.5356 14.2195L29.6434 12.546Z" fill="black"/>
<path d="M0 6.09473L3.34418 12.1556V15.8525L0.00391213 21.9014L0 6.09473Z" fill="#5B57A2"/>
<path d="M12.8398 9.94956L15.9735 8.00216L22.3866 7.99609L12.8398 13.926V9.94956Z" fill="#D90751"/>
<path d="M12.8226 6.05897L12.8403 14.0833L9.48828 11.995V0L12.8228 6.05897H12.8226Z" fill="#FAB718"/>
<path d="M22.387 7.99657L15.9737 8.00263L12.8226 6.05897L9.48828 0L22.3868 7.99657H22.387Z" fill="#ED6F26"/>
<path d="M12.8403 21.935V18.0418L9.48828 15.9932L9.49012 28L12.8403 21.935Z" fill="#63B22F"/>
<path d="M15.9661 20.0054L3.34395 12.1556L0 6.09473L22.3735 19.9974L15.9659 20.0054H15.9661Z" fill="#1487C9"/>
<path d="M9.49023 27.9997L12.8399 21.9347L15.9657 20.005L22.3731 19.9971L9.49023 27.9997Z" fill="#017F36"/>
<path d="M0.00390625 21.9013L9.51568 15.9933L6.31786 14.0039L3.34418 15.8524L0.00390625 21.9013Z" fill="#984995"/>
<path d="M26.3771 19.445C26.3035 19.5402 26.2066 19.6121 26.0904 19.6606C25.9711 19.7098 25.8435 19.7349 25.7148 19.7343C25.5868 19.7361 25.4595 19.7144 25.339 19.6704C25.2308 19.6306 25.1319 19.5684 25.0486 19.4879C24.9663 19.4073 24.9017 19.31 24.859 19.2023C24.8127 19.0844 24.7897 18.9585 24.7911 18.8316C24.7911 18.7056 24.8125 18.5889 24.8569 18.4783C24.8995 18.3675 24.9614 18.2725 25.0389 18.1927C25.1165 18.1113 25.2094 18.0492 25.3139 18.0007C25.4205 17.954 25.5367 17.9288 25.6644 17.9288C25.802 17.9288 25.9297 17.9463 26.046 17.9811C26.1622 18.0161 26.2609 18.0744 26.3421 18.1561L26.2008 18.3987C26.1325 18.336 26.052 18.2883 25.9645 18.2587C25.8813 18.2316 25.7944 18.2179 25.707 18.2181C25.6297 18.2181 25.556 18.2335 25.4844 18.2627C25.4139 18.2915 25.3495 18.3337 25.2946 18.3871C25.2385 18.4419 25.1943 18.5081 25.1648 18.5812C25.1319 18.6568 25.1165 18.7403 25.1165 18.8334C25.1165 18.9286 25.1337 19.0141 25.1666 19.0878C25.1998 19.1636 25.2442 19.2278 25.3003 19.2819C25.3565 19.3365 25.4223 19.3771 25.4978 19.4044C25.5735 19.4336 25.6529 19.4471 25.738 19.4471C25.8425 19.4471 25.9376 19.4256 26.0188 19.3848C26.0993 19.3454 26.1716 19.2908 26.2319 19.2238L26.3771 19.445ZM26.7759 19.6935V17.9657H27.082V19.253L28.0773 17.9657H28.3833V19.6938H28.0773V18.4064L27.082 19.6938H26.7759V19.6935ZM30.4107 19.445C30.3354 19.541 30.2367 19.6153 30.1242 19.6606C30.0049 19.7098 29.8772 19.7349 29.7484 19.7343C29.6205 19.7361 29.4933 19.7144 29.3729 19.6704C29.2646 19.6306 29.1657 19.5685 29.0822 19.4879C28.9999 19.4073 28.9353 19.31 28.8926 19.2023C28.8464 19.0844 28.8233 18.9585 28.8247 18.8316C28.8247 18.7056 28.8461 18.5889 28.8905 18.4783C28.9333 18.3675 28.9952 18.2725 29.0726 18.1927C29.1501 18.1113 29.2431 18.0492 29.3476 18.0007C29.4579 17.9514 29.5775 17.9269 29.698 17.9288C29.8357 17.9288 29.9634 17.9463 30.0796 17.9811C30.1958 18.0161 30.2945 18.0744 30.376 18.1561L30.2345 18.3987C30.1662 18.3359 30.0858 18.2882 29.9984 18.2587C29.9152 18.2316 29.8283 18.2179 29.7408 18.2181C29.587 18.2187 29.4393 18.2791 29.3282 18.3871C29.2726 18.4424 29.2285 18.5084 29.1984 18.5812C29.1655 18.6568 29.1501 18.7403 29.1501 18.8334C29.1501 18.9286 29.1676 19.0141 29.2005 19.0878C29.2334 19.1636 29.2778 19.2278 29.334 19.2819C29.3901 19.3365 29.4562 19.3771 29.5317 19.4044C29.6071 19.4315 29.6865 19.4471 29.7717 19.4471C29.8764 19.4471 29.9694 19.4256 30.0524 19.3848C30.1329 19.3454 30.2053 19.2908 30.2655 19.2238L30.4107 19.445ZM30.5677 17.9657H32.1381V18.2725H31.5068V19.6935H31.2008V18.2725H30.5695V17.9657H30.5677Z" fill="black"/>
<path fill-rule="evenodd" clip-rule="evenodd" d="M33.5672 19.6761C33.6834 19.6392 33.7822 19.5827 33.8673 19.5053L33.7743 19.2645C33.7182 19.3151 33.6427 19.3578 33.5518 19.3928C33.4607 19.4278 33.358 19.4451 33.2457 19.4451C33.0773 19.4451 32.9378 19.4005 32.8274 19.3093C32.7171 19.2178 32.6571 19.0899 32.6435 18.9266H33.9681C33.9817 18.8664 33.9874 18.7985 33.9874 18.7189C33.9874 18.6004 33.966 18.4938 33.9235 18.3967C33.8838 18.3024 33.8259 18.2172 33.7532 18.1461C33.6794 18.0757 33.5925 18.0209 33.4975 17.9851C33.3981 17.946 33.2923 17.9262 33.1857 17.9268C33.0423 17.9268 32.9164 17.952 32.8062 17.9986C32.702 18.0431 32.6077 18.1085 32.5291 18.1909C32.4528 18.2729 32.3942 18.3701 32.357 18.4763C32.3161 18.5894 32.2957 18.7091 32.2969 18.8295C32.2969 18.9656 32.3202 19.0897 32.3627 19.2005C32.4042 19.3079 32.4675 19.4052 32.5487 19.4859C32.6281 19.5652 32.7247 19.6257 32.8391 19.6684C32.9616 19.7124 33.0907 19.734 33.2207 19.7323C33.3383 19.7316 33.4552 19.7127 33.5672 19.6763V19.6761ZM32.7926 18.3461C32.8874 18.2588 33.0133 18.2161 33.1721 18.2161C33.3212 18.2161 33.4413 18.2569 33.5286 18.3386C33.6158 18.42 33.662 18.5327 33.6699 18.6762H32.6242C32.639 18.5492 32.6989 18.4319 32.7926 18.3463V18.3461Z" fill="black"/>
<path d="M34.4043 17.9658H34.6832L35.3455 18.8222L35.9728 17.9658H36.2439V19.6939H35.9381V18.4339L35.3416 19.2356H35.3299L34.7104 18.4337V19.6937H34.4043V17.9658Z" fill="black"/>
<path fill-rule="evenodd" clip-rule="evenodd" d="M37.0747 17.9715C36.9819 17.9961 36.8931 18.0346 36.8115 18.0858L36.8927 18.3308C36.9624 18.2958 37.0322 18.2667 37.1019 18.2415C37.1716 18.216 37.2607 18.2044 37.3672 18.2044C37.4524 18.2044 37.5203 18.2181 37.5725 18.2452C37.6247 18.2704 37.6634 18.3094 37.6906 18.356C37.7177 18.4027 37.7352 18.4608 37.7449 18.5287C37.7545 18.5966 37.7584 18.6703 37.7584 18.7501C37.6958 18.7059 37.6244 18.676 37.5493 18.6626C37.4766 18.648 37.4027 18.6402 37.3286 18.6393C37.2374 18.6393 37.1523 18.6531 37.0708 18.6762C36.9896 18.6995 36.9199 18.7345 36.8637 18.7812C36.8064 18.8277 36.7601 18.8867 36.7282 18.9538C36.6941 19.0273 36.6768 19.1076 36.6778 19.1888C36.6778 19.3577 36.7263 19.4898 36.823 19.5831C36.9199 19.6762 37.0476 19.7227 37.2064 19.7227C37.3497 19.7227 37.4641 19.6975 37.5511 19.6471C37.6383 19.5964 37.708 19.5383 37.7584 19.4723V19.6956H38.0449V18.6356C38.0449 18.4102 37.9966 18.2356 37.8979 18.1131C37.801 17.9909 37.6287 17.9288 37.3847 17.9288C37.2761 17.9288 37.1735 17.9442 37.0747 17.9715ZM37.5863 19.3715C37.5166 19.4219 37.4254 19.445 37.3131 19.445C37.2144 19.445 37.1369 19.4198 37.0828 19.3713C37.0285 19.3209 37.0013 19.2548 37.0013 19.1732C37.0013 19.1249 37.011 19.084 37.0324 19.0472C37.0538 19.0103 37.0828 18.9811 37.1157 18.9578C37.1517 18.9334 37.1917 18.9156 37.2338 18.9053C37.2784 18.8936 37.3228 18.8878 37.3693 18.8878C37.5205 18.8878 37.6501 18.9247 37.7566 19.0024V19.2217C37.7064 19.2787 37.6492 19.329 37.5863 19.3713V19.3715ZM40.7466 17.3578C40.8085 17.3289 40.8665 17.2804 40.9208 17.2085L40.7542 16.9658C40.7116 17.0242 40.6633 17.0648 40.609 17.0862C40.5514 17.109 40.4918 17.1259 40.4309 17.1366L40.3729 17.1471C40.3225 17.156 40.2684 17.1658 40.2102 17.1756C40.1168 17.1931 40.0258 17.2218 39.9391 17.261C39.8015 17.3212 39.6913 17.4026 39.608 17.5055C39.5247 17.6084 39.4588 17.7249 39.4142 17.8532C39.369 17.9832 39.3385 18.118 39.3233 18.255C39.3076 18.395 39.3001 18.5287 39.3001 18.6568C39.3001 18.822 39.3212 18.9713 39.3638 19.1053C39.4066 19.2394 39.4664 19.3519 39.5458 19.4431C39.6252 19.5365 39.7203 19.6065 39.8326 19.6569C39.9449 19.7073 40.0707 19.7325 40.212 19.7325C40.3418 19.7325 40.462 19.7073 40.5703 19.6606C40.6748 19.6157 40.7696 19.5505 40.8493 19.4686C40.9266 19.3888 40.9887 19.2936 41.0313 19.1869C41.0757 19.0801 41.0971 18.9655 41.0971 18.8451C41.0971 18.7151 41.0778 18.5968 41.041 18.4918C41.007 18.3917 40.953 18.2999 40.8822 18.2221C40.8112 18.1456 40.7246 18.0859 40.6283 18.0471C40.5223 18.0048 40.4093 17.9837 40.2953 17.985C40.2217 17.985 40.1501 17.9948 40.0804 18.0142C40.0126 18.0336 39.9475 18.0616 39.8866 18.0977C39.8276 18.132 39.7736 18.1744 39.726 18.2237C39.6795 18.2725 39.6409 18.3269 39.6137 18.3889H39.6059C39.6119 18.3094 39.6215 18.2279 39.6388 18.1444C39.6563 18.0609 39.6814 17.9811 39.7145 17.9055C39.7474 17.8299 39.79 17.7617 39.8422 17.6997C39.8982 17.637 39.9669 17.5873 40.0436 17.5541C40.1279 17.5133 40.2171 17.484 40.3089 17.4668L40.3697 17.4556C40.4302 17.4444 40.488 17.4337 40.5432 17.422C40.6168 17.4066 40.6845 17.387 40.7466 17.3581V17.3578ZM39.6699 19.018C39.6399 18.92 39.6255 18.8177 39.6273 18.7151C39.6403 18.6562 39.6639 18.6003 39.697 18.5502C39.7299 18.4977 39.7725 18.4512 39.8229 18.4102C39.9366 18.3198 40.0772 18.2713 40.2217 18.2725C40.4019 18.2725 40.5374 18.3287 40.6322 18.4396C40.7273 18.552 40.7738 18.6918 40.7738 18.8607C40.7738 18.9443 40.7581 19.0201 40.7312 19.0899C40.705 19.1587 40.6655 19.2215 40.6149 19.2745C40.5644 19.3275 40.5038 19.3697 40.4369 19.3986C40.3671 19.4296 40.2914 19.4452 40.2063 19.4452C40.1211 19.4452 40.0436 19.4277 39.972 19.3927C39.9009 19.3584 39.838 19.3087 39.7879 19.2471C39.7354 19.1785 39.6955 19.1009 39.6699 19.018ZM43.4442 17.9657H43.1381V19.6937H43.4442V17.9657ZM41.5385 17.9657H41.8445V18.4841H42.1274C42.2608 18.4841 42.3692 18.5016 42.4565 18.5345C42.5437 18.5677 42.6134 18.6122 42.6656 18.6666C42.7179 18.721 42.7547 18.7851 42.7761 18.8568C42.7973 18.9286 42.809 19.0024 42.809 19.0801C42.809 19.1578 42.7973 19.2317 42.7722 19.3055C42.7489 19.3792 42.7082 19.4431 42.6539 19.5015C42.5998 19.5598 42.5262 19.6065 42.4332 19.6415C42.3402 19.6762 42.2279 19.6956 42.0924 19.6956H41.5366V17.9657H41.5385ZM41.8445 18.7732V19.4063H42.0673C42.2203 19.4063 42.3287 19.3792 42.3906 19.3246C42.4528 19.2702 42.4836 19.1928 42.4836 19.0899C42.4836 18.9849 42.4507 18.9055 42.3888 18.8509C42.3248 18.7966 42.2183 18.7693 42.0712 18.7693H41.8445V18.7732Z" fill="black"/>
<path d="M45.4689 19.445C45.3953 19.5402 45.2984 19.6121 45.1822 19.6606C45.0629 19.7098 44.9353 19.7349 44.8066 19.7344C44.6786 19.7361 44.5513 19.7145 44.4308 19.6704C44.3226 19.6306 44.2237 19.5685 44.1404 19.488C44.0581 19.4073 43.9934 19.31 43.9505 19.2024C43.9045 19.0844 43.8815 18.9585 43.8829 18.8316C43.8829 18.7056 43.904 18.5889 43.9487 18.4783C43.9913 18.3675 44.0532 18.2725 44.1307 18.1927C44.2083 18.1113 44.301 18.0492 44.4057 18.0007C44.5161 17.9514 44.6356 17.9269 44.7562 17.9288C44.8936 17.9288 45.0215 17.9463 45.1377 17.9811C45.254 18.0161 45.3527 18.0744 45.4339 18.1561L45.2926 18.3988C45.2243 18.336 45.1438 18.2883 45.0563 18.2588C44.9731 18.2316 44.8862 18.2179 44.7988 18.2182C44.7215 18.2182 44.6478 18.2336 44.576 18.2627C44.5056 18.2915 44.4412 18.3337 44.3864 18.3871C44.3307 18.4423 44.2866 18.5083 44.2566 18.5812C44.2237 18.6568 44.2083 18.7404 44.2083 18.8335C44.2083 18.9287 44.2255 19.0141 44.2584 19.0878C44.2913 19.1636 44.336 19.2278 44.3921 19.2819C44.4483 19.3365 44.5141 19.3771 44.5896 19.4044C44.6653 19.4315 44.7447 19.4471 44.8298 19.4471C44.9343 19.4471 45.0273 19.4257 45.1106 19.3848C45.1911 19.3454 45.2634 19.2908 45.3237 19.2238L45.4689 19.445ZM45.6256 17.9657H47.1962V18.2725H46.5648V19.6935H46.2589V18.2725H45.6277V17.9657H45.6256Z" fill="black"/>
<path fill-rule="evenodd" clip-rule="evenodd" d="M47.8354 17.9658H47.5293V20.4625H47.8354V19.6141C47.8973 19.6549 47.9709 19.6841 48.0561 19.7035C48.1412 19.7229 48.2303 19.7324 48.3214 19.7324C48.4569 19.7324 48.5789 19.7072 48.6894 19.6608C48.7953 19.6148 48.8913 19.5482 48.972 19.4648C49.0514 19.381 49.1114 19.284 49.154 19.1694C49.1966 19.0551 49.218 18.9326 49.218 18.8026C49.218 18.6743 49.1986 18.556 49.1618 18.4491C49.1271 18.3476 49.0732 18.254 49.003 18.1735C48.9342 18.095 48.8487 18.0333 48.7531 17.9929C48.6486 17.9474 48.5357 17.9249 48.422 17.9269C48.3021 17.9269 48.1898 17.9502 48.0832 17.9969C47.9767 18.0435 47.8934 18.0995 47.8354 18.1695V17.9658ZM48.0485 18.2862C48.1357 18.2395 48.2305 18.2162 48.3331 18.2162C48.4222 18.2162 48.5016 18.2298 48.5734 18.2589C48.6431 18.2881 48.7011 18.3289 48.7497 18.3833C48.798 18.4376 48.8348 18.5 48.858 18.5735C48.8831 18.6472 48.8949 18.727 48.8949 18.8142C48.8949 18.9076 48.8792 18.9909 48.8523 19.0686C48.8269 19.1423 48.7866 19.2097 48.734 19.2667C48.6812 19.323 48.6172 19.3672 48.5462 19.3967C48.4671 19.4302 48.382 19.4468 48.2963 19.4452C48.2132 19.4452 48.1357 19.4356 48.062 19.4162C47.9814 19.394 47.9049 19.3585 47.8356 19.3113V18.4549C47.8897 18.3891 47.9615 18.3329 48.0485 18.2862ZM51.565 17.9656H51.2589V19.6937H51.565V17.9656ZM49.6575 17.9656H49.9636V18.4841H50.2462C50.3799 18.4841 50.4883 18.5016 50.5755 18.5345C50.6627 18.5676 50.7324 18.6122 50.7847 18.6666C50.8369 18.7209 50.8737 18.7851 50.8949 18.8567C50.9163 18.9286 50.9278 19.0023 50.9278 19.08C50.9278 19.1577 50.9163 19.2317 50.8912 19.3054C50.868 19.3792 50.8272 19.4431 50.7729 19.5014C50.7188 19.5597 50.6452 19.6064 50.5522 19.6414C50.4593 19.6762 50.347 19.6955 50.2114 19.6955H49.6557V17.9656H49.6575ZM49.9656 18.7732V19.4062H50.1884C50.3412 19.4062 50.4498 19.3792 50.5117 19.3246C50.5736 19.2702 50.6047 19.1927 50.6047 19.0898C50.6047 18.9848 50.5718 18.9055 50.5099 18.8509C50.4459 18.7965 50.3394 18.7692 50.1923 18.7692H49.9656V18.7732Z" fill="black"/>
<path d="M53.0321 18.7988L53.6866 19.6939H53.311L52.8054 18.9948L52.2922 19.6939H51.936L52.5866 18.8142L51.9747 17.9658H52.3504L52.8171 18.6182L53.2914 17.9658H53.6479L53.0321 18.7988ZM26.1495 21.8296H25.2104V23.2702H24.9043V21.5424H26.4553V23.2702H26.1495V21.8296ZM28.1923 21.849H27.5883L27.5687 22.1402C27.5475 22.3868 27.5185 22.5849 27.4778 22.7361C27.4371 22.8878 27.3867 23.0042 27.3287 23.0856C27.2707 23.1673 27.2028 23.2235 27.1252 23.2508C27.0452 23.2802 26.9606 23.2947 26.8756 23.2935L26.8523 22.9944C26.8852 22.9963 26.9239 22.9886 26.9665 22.9692C27.0093 22.9498 27.0518 22.9071 27.0923 22.8432C27.1331 22.7769 27.1699 22.6838 27.2028 22.5634C27.2357 22.4412 27.2571 22.282 27.2686 22.0818L27.2997 21.544H28.4984V23.2721H28.1923V21.8487V21.849Z" fill="black"/>
<path fill-rule="evenodd" clip-rule="evenodd" d="M29.3247 21.5466C29.2258 21.5737 29.1367 21.6124 29.0612 21.6609L29.1427 21.9057C29.2124 21.8707 29.2822 21.8415 29.3517 21.8163C29.4214 21.7911 29.5107 21.7795 29.617 21.7795C29.7024 21.7795 29.77 21.793 29.8223 21.8201C29.8747 21.8455 29.9134 21.8842 29.9406 21.9309C29.9675 21.9776 29.985 22.0359 29.9946 22.1036C30.0043 22.1717 30.0082 22.2454 30.0082 22.325C29.9456 22.2808 29.8742 22.251 29.799 22.2377C29.7263 22.2231 29.6525 22.2153 29.5783 22.2144C29.4874 22.2144 29.4021 22.2279 29.3208 22.2513C29.2394 22.2746 29.1696 22.3096 29.1135 22.3563C29.0562 22.4029 29.0099 22.4619 28.9779 22.5289C28.9439 22.6024 28.9268 22.6827 28.9278 22.7639C28.9278 22.9326 28.9761 23.0649 29.073 23.158C29.1696 23.2511 29.2976 23.2978 29.4564 23.2978C29.5997 23.2978 29.7139 23.2726 29.8011 23.2219C29.8881 23.1715 29.9578 23.1132 30.0082 23.0472V23.2705H30.295V22.2104C30.295 21.9853 30.2464 21.8105 30.1477 21.6882C30.0508 21.5657 29.8784 21.5039 29.6345 21.5039C29.5298 21.504 29.4257 21.5183 29.3247 21.5464V21.5466ZM29.8379 22.9461C29.7684 22.9968 29.6773 23.0201 29.565 23.0201C29.4642 23.0201 29.3887 22.9949 29.3346 22.9461C29.2803 22.8957 29.2532 22.8297 29.2532 22.7483C29.2532 22.6997 29.2628 22.6589 29.2842 22.622C29.3054 22.5852 29.3346 22.556 29.3675 22.5327C29.4005 22.5093 29.441 22.4918 29.4856 22.4802C29.5299 22.4686 29.5754 22.4628 29.6211 22.4629C29.7721 22.4629 29.9019 22.4998 30.0084 22.5772V22.7966C29.9582 22.8536 29.9008 22.9039 29.8379 22.9461Z" fill="black"/>
<path d="M30.5938 21.542H32.1644V21.8486H31.5329V23.2698H31.2271V21.8488H30.5958V21.542H30.5938Z" fill="black"/>
<path fill-rule="evenodd" clip-rule="evenodd" d="M33.5948 23.2529C33.711 23.216 33.8097 23.1596 33.8949 23.0821L33.8019 22.8413C33.7457 22.8919 33.6703 22.9346 33.5791 22.9696C33.4882 23.0046 33.3856 23.0219 33.2733 23.0219C33.1048 23.0219 32.9654 22.9773 32.8549 22.8861C32.7445 22.7949 32.6846 22.6668 32.6711 22.5034H33.9957C34.009 22.4435 34.015 22.3753 34.015 22.2958C34.015 22.1775 33.9936 22.0706 33.951 21.9735C33.9114 21.8793 33.8534 21.7942 33.7805 21.7232C33.7069 21.6526 33.62 21.5978 33.5251 21.5619C33.4256 21.5229 33.3199 21.5031 33.2132 21.5036C33.0699 21.5036 32.944 21.5288 32.8338 21.5755C32.7295 21.6198 32.6352 21.6852 32.5567 21.7677C32.4804 21.8498 32.4217 21.9469 32.3843 22.0531C32.3435 22.1663 32.3232 22.2859 32.3243 22.4064C32.3243 22.5424 32.3475 22.6665 32.3901 22.7774C32.4329 22.888 32.4966 22.9832 32.576 23.0627C32.6554 23.1423 32.7523 23.2025 32.8667 23.2452C32.989 23.2893 33.1181 23.311 33.248 23.3094C33.3624 23.3094 33.4786 23.2898 33.5948 23.2529ZM32.8183 21.921C32.9132 21.8338 33.039 21.7911 33.1978 21.7911C33.349 21.7911 33.4671 21.8338 33.5543 21.9133C33.6413 21.995 33.6878 22.1075 33.6956 22.2512H32.6499C32.6647 22.1241 32.7245 22.0067 32.8183 21.921ZM34.1641 21.5426H34.5514L35.1419 22.3756L34.5107 23.2704H34.1351L34.7972 22.3753L34.1641 21.5423V21.5426ZM35.2174 21.5426H35.5235V23.2704H35.2174V21.5426ZM36.6175 23.2704L35.9437 22.3753L36.5731 21.5423H36.1934L35.5989 22.3753L36.238 23.2704H36.6175ZM38.0157 23.2529C38.1319 23.216 38.2307 23.1596 38.3158 23.0821L38.2228 22.8413C38.1667 22.8919 38.0912 22.9346 38.0003 22.9696C37.9092 23.0046 37.8065 23.0219 37.6942 23.0219C37.5258 23.0219 37.3863 22.9773 37.2759 22.8861C37.1656 22.7949 37.1056 22.6668 37.092 22.5034H38.4166C38.4302 22.4435 38.4359 22.3753 38.4359 22.2958C38.4359 22.1775 38.4148 22.0706 38.372 21.9735C38.3323 21.8794 38.2744 21.7942 38.2017 21.7232C38.128 21.6526 38.041 21.5978 37.946 21.5619C37.8466 21.5228 37.7408 21.503 37.6342 21.5036C37.491 21.5036 37.3652 21.5288 37.2547 21.5755C37.1505 21.6199 37.0563 21.6853 36.9779 21.7677C36.9014 21.8496 36.8427 21.9468 36.8055 22.0531C36.7646 22.1662 36.7442 22.2859 36.7454 22.4064C36.7454 22.5424 36.7687 22.6665 36.8112 22.7774C36.8538 22.888 36.9178 22.9832 36.9972 23.0627C37.0766 23.1423 37.1732 23.2025 37.2876 23.2452C37.41 23.2893 37.5392 23.311 37.6692 23.3094C37.7868 23.3085 37.9037 23.2895 38.0157 23.2529ZM37.2393 21.921C37.3343 21.8338 37.4602 21.7911 37.619 21.7911C37.7681 21.7911 37.888 21.8338 37.9752 21.9133C38.0624 21.995 38.1089 22.1075 38.1165 22.2512H37.0708C37.0856 22.1241 37.1455 22.0067 37.2393 21.921ZM39.6775 20.962C39.4973 20.962 39.3985 20.861 39.3831 20.6592H39.0946C39.0946 20.7366 39.1081 20.8066 39.1332 20.8727C39.1585 20.9387 39.1954 20.9949 39.2437 21.0416C39.292 21.0883 39.3541 21.1251 39.4257 21.1541C39.4973 21.1832 39.5806 21.1968 39.6754 21.1968C39.7626 21.1968 39.8402 21.1832 39.9099 21.1541C39.9796 21.127 40.0376 21.0883 40.088 21.0416C40.1363 20.9949 40.1752 20.9387 40.2021 20.8727C40.2293 20.8066 40.2429 20.7366 40.2429 20.6592H39.9564C39.9428 20.861 39.8478 20.962 39.6775 20.962ZM38.8504 21.5423V23.2704H39.1565L40.1518 21.9831V23.2704H40.4578V21.5423H40.1518L39.1565 22.8296V21.5423H38.8504Z" fill="black"/>
</g>
<defs>
<clipPath id="clip0_1_264">
<rect width="55" height="28" fill="white"/>
</clipPath>
</defs>
</svg>
