<svg width="33" height="33" viewBox="0 0 33 33" fill="none" xmlns="http://www.w3.org/2000/svg">
<path d="M17.0257 8.21747C17.2644 7.18426 18.7356 7.18426 18.9743 8.21747L19.7387 11.526C19.8692 12.0908 20.4509 12.4266 21.0053 12.2573L24.2527 11.2649C25.2668 10.955 26.0025 12.2292 25.227 12.9525L22.7439 15.2687C22.3201 15.6641 22.3201 16.3359 22.7439 16.7313L25.227 19.0475C26.0025 19.7708 25.2668 21.045 24.2527 20.7351L21.0053 19.7427C20.4509 19.5734 19.8692 19.9092 19.7387 20.474L18.9743 23.7825C18.7356 24.8157 17.2644 24.8157 17.0257 23.7825L16.2613 20.474C16.1308 19.9092 15.5491 19.5734 14.9947 19.7427L11.7473 20.7351C10.7332 21.045 9.99753 19.7708 10.773 19.0475L13.2561 16.7313C13.6799 16.3359 13.6799 15.6641 13.2561 15.2687L10.773 12.9525C9.99753 12.2292 10.7332 10.955 11.7473 11.2649L14.9947 12.2573C15.5491 12.4266 16.1308 12.0908 16.2613 11.526L17.0257 8.21747Z" fill="#F93326"/>
<path d="M22.6456 11.6572C23.6597 11.3474 24.3953 12.6215 23.6199 13.3448L21.1368 15.6611C20.7129 16.0564 20.7129 16.7282 21.1368 17.1236L23.6199 19.4398C24.3953 20.1631 23.6597 21.4373 22.6456 21.1274L19.3981 20.1351C18.8438 19.9657 18.262 20.3015 18.1315 20.8663L17.3672 24.1748C17.1285 25.208 15.6572 25.208 15.4185 24.1748L14.6542 20.8663C14.5237 20.3015 13.9419 19.9657 13.3876 20.1351L10.1402 21.1274C9.12602 21.4373 8.39038 20.1631 9.16582 19.4398L11.6489 17.1236C12.0728 16.7282 12.0728 16.0564 11.6489 15.6611L9.16581 13.3448C8.39038 12.6215 9.12602 11.3474 10.1402 11.6572L13.3876 12.6496C13.9419 12.8189 14.5237 12.4831 14.6542 11.9183L15.4185 8.60978C15.6572 7.57657 17.1285 7.57657 17.3672 8.60978L18.1315 11.9183C18.262 12.4831 18.8438 12.8189 19.3981 12.6496L22.6456 11.6572Z" fill="#FF8227"/>
<path d="M14.0257 9.21747C14.2644 8.18426 15.7356 8.18426 15.9743 9.21747L16.7387 12.526C16.8692 13.0908 17.4509 13.4266 18.0053 13.2573L21.2527 12.2649C22.2668 11.955 23.0025 13.2292 22.227 13.9525L19.7439 16.2687C19.3201 16.6641 19.3201 17.3359 19.7439 17.7313L22.227 20.0475C23.0025 20.7708 22.2668 22.045 21.2527 21.7351L18.0053 20.7427C17.4509 20.5734 16.8692 20.9092 16.7387 21.474L15.9743 24.7825C15.7356 25.8157 14.2644 25.8157 14.0257 24.7825L13.2613 21.474C13.1308 20.9092 12.5491 20.5734 11.9947 20.7427L8.7473 21.7351C7.73317 22.045 6.99753 20.7708 7.77296 20.0475L10.2561 17.7313C10.6799 17.3359 10.6799 16.6641 10.2561 16.2687L7.77296 13.9525C6.99753 13.2292 7.73317 11.955 8.7473 12.2649L11.9947 13.2573C12.5491 13.4266 13.1308 13.0908 13.2613 12.526L14.0257 9.21747Z" fill="#FFD43C"/>
</svg>
