<svg width="50" height="50" viewBox="0 0 50 50" fill="none" xmlns="http://www.w3.org/2000/svg">
<path d="M23.4375 18.75L17.1875 25L23.4375 18.75ZM17.1875 25L23.4375 31.25L17.1875 25ZM17.1875 25L32.8125 25L17.1875 25ZM6.25 25C6.25 22.5377 6.73498 20.0995 7.67726 17.8247C8.61954 15.5498 10.0007 13.4828 11.7418 11.7417C13.4829 10.0006 15.5498 8.61953 17.8247 7.67726C20.0995 6.73498 22.5377 6.25 25 6.25C27.4623 6.25 29.9005 6.73498 32.1753 7.67726C34.4502 8.61953 36.5172 10.0007 38.2583 11.7417C39.9994 13.4828 41.3805 15.5498 42.3227 17.8247C43.265 20.0995 43.75 22.5377 43.75 25C43.75 29.9728 41.7746 34.7419 38.2583 38.2583C34.7419 41.7746 29.9728 43.75 25 43.75C20.0272 43.75 15.2581 41.7746 11.7417 38.2582C8.22545 34.7419 6.25 29.9728 6.25 25Z" fill="#71717A"/>
<path d="M23.4375 18.75L17.1875 25M17.1875 25L23.4375 31.25M17.1875 25L32.8125 25M6.25 25C6.25 22.5377 6.73498 20.0995 7.67726 17.8247C8.61954 15.5498 10.0007 13.4828 11.7418 11.7417C13.4829 10.0006 15.5498 8.61953 17.8247 7.67726C20.0995 6.73498 22.5377 6.25 25 6.25C27.4623 6.25 29.9005 6.73498 32.1753 7.67726C34.4502 8.61953 36.5172 10.0007 38.2583 11.7418C39.9994 13.4828 41.3805 15.5498 42.3227 17.8247C43.265 20.0995 43.75 22.5377 43.75 25C43.75 29.9728 41.7746 34.7419 38.2583 38.2583C34.7419 41.7746 29.9728 43.75 25 43.75C20.0272 43.75 15.2581 41.7746 11.7418 38.2582C8.22544 34.7419 6.25 29.9728 6.25 25Z" stroke="white" stroke-width="1.5" stroke-linecap="round" stroke-linejoin="round"/>
</svg>
