<svg width="40" height="40" viewBox="0 0 40 40" fill="none" xmlns="http://www.w3.org/2000/svg">
<path d="M21.5625 26.25L27.8125 20L21.5625 26.25ZM27.8125 20L21.5625 13.75L27.8125 20ZM27.8125 20H12.1875H27.8125ZM38.75 20C38.75 22.4623 38.265 24.9005 37.3227 27.1753C36.3805 29.4502 34.9993 31.5172 33.2583 33.2583C31.5172 34.9993 29.4502 36.3805 27.1753 37.3227C24.9005 38.265 22.4623 38.75 20 38.75C17.5377 38.75 15.0995 38.265 12.8247 37.3227C10.5498 36.3805 8.48285 34.9993 6.74175 33.2583C5.00065 31.5172 3.61953 29.4502 2.67726 27.1753C1.73498 24.9005 1.25 22.4623 1.25 20C1.25 15.0272 3.22544 10.2581 6.74175 6.74175C10.2581 3.22544 15.0272 1.25 20 1.25C24.9728 1.25 29.7419 3.22544 33.2583 6.74175C36.7746 10.2581 38.75 15.0272 38.75 20Z" fill="#FF8227"/>
<path d="M21.5625 26.25L27.8125 20M27.8125 20L21.5625 13.75M27.8125 20H12.1875M38.75 20C38.75 22.4623 38.265 24.9005 37.3227 27.1753C36.3805 29.4502 34.9993 31.5172 33.2582 33.2582C31.5172 34.9993 29.4502 36.3805 27.1753 37.3227C24.9005 38.265 22.4623 38.75 20 38.75C17.5377 38.75 15.0995 38.265 12.8247 37.3227C10.5498 36.3805 8.48285 34.9993 6.74175 33.2582C5.00065 31.5172 3.61953 29.4502 2.67726 27.1753C1.73498 24.9005 1.25 22.4623 1.25 20C1.25 15.0272 3.22544 10.2581 6.74175 6.74175C10.2581 3.22544 15.0272 1.25 20 1.25C24.9728 1.25 29.7419 3.22544 33.2582 6.74175C36.7746 10.2581 38.75 15.0272 38.75 20Z" stroke="white" stroke-width="1.5" stroke-linecap="round" stroke-linejoin="round"/>
</svg>
