<svg width="32.785156" height="32.784668" viewBox="0 0 32.7852 32.7847" fill="none" xmlns="http://www.w3.org/2000/svg" xmlns:xlink="http://www.w3.org/1999/xlink">
	<desc>
			Created with Pixso.
	</desc>
	<defs/>
	<path id="Star 3" d="M17.02 8.21L16.26 11.52C16.13 12.09 15.54 12.42 14.99 12.25L11.74 11.26C10.73 10.95 9.99 12.22 10.77 12.95L13.25 15.26C13.67 15.66 13.67 16.33 13.25 16.73L10.77 19.04C9.99 19.77 10.73 21.04 11.74 20.73L14.99 19.74C15.54 19.57 16.13 19.9 16.26 20.47L17.02 23.78C17.26 24.81 18.73 24.81 18.97 23.78L19.73 20.47C19.86 19.9 20.45 19.57 21 19.74L24.25 20.73C25.26 21.04 26 19.77 25.22 19.04L22.74 16.73C22.32 16.33 22.32 15.66 22.74 15.26L25.22 12.95C26 12.22 25.26 10.95 24.25 11.26L21 12.25C20.45 12.42 19.86 12.09 19.73 11.52L18.97 8.21C18.73 7.18 17.26 7.18 17.02 8.21Z" fill="#F93326" fill-opacity="1.000000" fill-rule="evenodd"/>
	<path id="Star 5" d="M22.64 11.65L19.39 12.64C18.84 12.81 18.26 12.48 18.13 11.91L17.36 8.6C17.12 7.57 15.65 7.57 15.41 8.6L14.65 11.91C14.52 12.48 13.94 12.81 13.38 12.64L10.14 11.65C9.12 11.34 8.39 12.62 9.16 13.34L11.64 15.66C12.07 16.05 12.07 16.72 11.64 17.12L9.16 19.43C8.39 20.16 9.12 21.43 10.14 21.12L13.38 20.13C13.94 19.96 14.52 20.3 14.65 20.86L15.41 24.17C15.65 25.2 17.12 25.2 17.36 24.17L18.13 20.86C18.26 20.3 18.84 19.96 19.39 20.13L22.64 21.12C23.66 21.43 24.39 20.16 23.61 19.43L21.13 17.12C20.71 16.72 20.71 16.05 21.13 15.66L23.61 13.34C24.39 12.62 23.66 11.34 22.64 11.65Z" fill="#FF8227" fill-opacity="1.000000" fill-rule="evenodd"/>
	<path id="Star 2" d="M14.02 9.21L13.26 12.52C13.13 13.09 12.54 13.42 11.99 13.25L8.74 12.26C7.73 11.95 6.99 13.22 7.77 13.95L10.25 16.26C10.67 16.66 10.67 17.33 10.25 17.73L7.77 20.04C6.99 20.77 7.73 22.04 8.74 21.73L11.99 20.74C12.54 20.57 13.13 20.9 13.26 21.47L14.02 24.78C14.26 25.81 15.73 25.81 15.97 24.78L16.73 21.47C16.86 20.9 17.45 20.57 18 20.74L21.25 21.73C22.26 22.04 23 20.77 22.22 20.04L19.74 17.73C19.32 17.33 19.32 16.66 19.74 16.26L22.22 13.95C23 13.22 22.26 11.95 21.25 12.26L18 13.25C17.45 13.42 16.86 13.09 16.73 12.52L15.97 9.21C15.73 8.18 14.26 8.18 14.02 9.21Z" fill="#FFD43C" fill-opacity="1.000000" fill-rule="evenodd"/>
</svg>
