<svg width="20.000000" height="20.000000" viewBox="0 0 20 20" fill="none" xmlns="http://www.w3.org/2000/svg" xmlns:xlink="http://www.w3.org/1999/xlink">
	<desc>
			Created with Pixso.
	</desc>
	<defs>
		<clipPath id="clip2_1485">
			<rect id="Frame" rx="-0.500000" width="19.000000" height="19.000000" transform="translate(0.500000 0.500000)" fill="white" fill-opacity="0"/>
		</clipPath>
	</defs>
	<rect id="Frame" rx="-0.500000" width="19.000000" height="19.000000" transform="translate(0.500000 0.500000)" fill="#FFFFFF" fill-opacity="0"/>
	<g clip-path="url(#clip2_1485)">
		<path id="Vector" d="M5.22 10.21C5.37 10.07 5.56 9.99 5.76 10C5.96 10 6.15 10.08 6.28 10.22L9.99 14.15L13.69 10.22C13.76 10.15 13.84 10.09 13.93 10.05C14.02 10.01 14.12 9.98 14.22 9.98C14.32 9.98 14.42 9.99 14.51 10.03C14.61 10.07 14.69 10.12 14.77 10.19C14.84 10.26 14.9 10.34 14.93 10.43C14.97 10.53 15 10.62 15 10.72C15 10.82 14.98 10.92 14.94 11.02C14.9 11.11 14.84 11.19 14.77 11.26L10.53 15.75C10.46 15.82 10.37 15.88 10.28 15.92C10.19 15.96 10.09 15.98 9.99 15.98C9.89 15.98 9.79 15.96 9.69 15.92C9.6 15.88 9.52 15.82 9.45 15.75L5.2 11.26C5.07 11.12 4.99 10.93 5 10.73C5 10.53 5.08 10.34 5.22 10.21Z" fill="#71717A" fill-opacity="1.000000" fill-rule="evenodd"/>
	</g>
</svg>
