<svg width="45.000000" height="45.000000" viewBox="0 0 45 45" fill="none" xmlns="http://www.w3.org/2000/svg" xmlns:xlink="http://www.w3.org/1999/xlink">
	<desc>
			Created with Pixso.
	</desc>
	<defs/>
	<path id="Vector" d="M22.5 22.5C25.48 22.5 28.34 21.31 30.45 19.2C32.56 17.09 33.75 14.23 33.75 11.25C33.75 8.26 32.56 5.4 30.45 3.29C28.34 1.18 25.48 0 22.5 0C19.51 0 16.65 1.18 14.54 3.29C12.43 5.4 11.25 8.26 11.25 11.25C11.25 14.23 12.43 17.09 14.54 19.2C16.65 21.31 19.51 22.5 22.5 22.5ZM30 11.25C30 13.23 29.2 15.14 27.8 16.55C26.39 17.95 24.48 18.75 22.5 18.75C20.51 18.75 18.6 17.95 17.19 16.55C15.79 15.14 15 13.23 15 11.25C15 9.26 15.79 7.35 17.19 5.94C18.6 4.54 20.51 3.75 22.5 3.75C24.48 3.75 26.39 4.54 27.8 5.94C29.2 7.35 30 9.26 30 11.25ZM45 41.25C45 45 41.25 45 41.25 45L3.75 45C3.75 45 0 45 0 41.25C0 37.5 3.75 26.25 22.5 26.25C41.25 26.25 45 37.5 45 41.25ZM41.25 41.23C41.24 40.31 40.67 37.53 38.13 34.99C35.68 32.54 31.08 30 22.5 30C13.91 30 9.31 32.54 6.86 34.99C4.32 37.53 3.75 40.31 3.75 41.23L41.25 41.23Z" fill="#FF8227" fill-opacity="1.000000" fill-rule="nonzero"/>
</svg>
